<svg id="check-thankyou" xmlns="http://www.w3.org/2000/svg" width="122" height="122" viewBox="0 0 122 122">
  <g id="Group_188" data-name="Group 188" transform="translate(28.967 15.328)">
    <g id="Group_187" data-name="Group 187">
      <path id="Path_342" data-name="Path 342" d="M211.112,65.678a4.6,4.6,0,0,0-6.5-.008l-55.16,55.015-19.9-21.615a4.6,4.6,0,0,0-6.765,6.229l23.143,25.134a4.592,4.592,0,0,0,3.284,1.482h.1a4.6,4.6,0,0,0,3.246-1.341L211.1,72.181A4.6,4.6,0,0,0,211.112,65.678Z" transform="translate(-121.568 -64.327)" fill="#000"/>
    </g>
  </g>
  <g id="Group_190" data-name="Group 190">
    <g id="Group_189" data-name="Group 189">
      <path id="Path_343" data-name="Path 343" d="M117.4,56.4a4.6,4.6,0,0,0-4.6,4.6A51.8,51.8,0,1,1,61,9.2,4.6,4.6,0,1,0,61,0a61,61,0,1,0,61,61A4.6,4.6,0,0,0,117.4,56.4Z" fill="#000"/>
    </g>
  </g>
</svg>
