<svg width="117" height="29" viewBox="0 0 117 29" fill="none" xmlns="http://www.w3.org/2000/svg">
<path d="M101.678 4.88547V12.6812H110.855V16.6408H101.678V24.5288H116.468V28.4821H97.8206V0.931152H116.468L116.451 4.88442L101.678 4.88547Z" fill="#363636"/>
<path d="M46.4574 17.1859C47.8478 17.1859 48.975 16.0587 48.975 14.6683C48.975 13.2778 47.8478 12.1506 46.4574 12.1506C45.067 12.1506 43.9398 13.2778 43.9398 14.6683C43.9398 16.0587 45.067 17.1859 46.4574 17.1859Z" fill="#363636"/>
<path d="M33.6421 12.8157V28.5443H37.6317V12.6879C37.6317 10.3469 38.5615 8.1018 40.2166 6.44627C41.8716 4.79075 44.1165 3.8604 46.4574 3.85984V3.85984C47.6168 3.85977 48.7648 4.08807 49.8359 4.53169C50.907 4.97531 51.8802 5.62557 52.7 6.44534C53.5198 7.26511 54.1701 8.23833 54.6138 9.30944C55.0575 10.3805 55.2858 11.5286 55.2858 12.6879V28.5422H59.2712V12.8135C59.2712 5.73778 53.5357 0 46.4574 0C39.3797 0 33.6421 5.73778 33.6421 12.8157Z" fill="#363636"/>
<path d="M28.1091 28.5824H12.5112C8.45991 28.5824 4.66666 26.5091 2.54863 23.0546C-4.12267 12.1723 3.6058 0.830322 13.9336 0.830322H28.1091V4.88123H12.5614C10.0808 4.88123 7.73841 6.07302 6.32287 8.10929C0.82697 16.0163 6.27854 24.6096 13.8086 24.6096L24.0604 24.5314V16.7315H15.0615V12.6806H28.1091V28.5824Z" fill="#363636"/>
<path d="M92.1938 28.5822H78.2511C70.6536 28.5822 64.2894 22.571 64.1454 14.9743C63.9981 7.20077 70.2783 0.829102 78.0184 0.829102H92.1938V4.88107H78.2031C72.8381 4.88107 68.3234 9.10351 68.1967 14.4692C68.0658 19.9948 72.2739 24.6843 77.7698 24.6843L88.143 24.5313V16.7314H79.1463V12.6805H92.1938V28.5822Z" fill="#363636"/>
</svg>
