<svg xmlns="http://www.w3.org/2000/svg" width="60.332" height="76.871" viewBox="0 0 60.332 76.871">
  <g id="open-source-leader" transform="translate(-183.062 -70)">
    <path id="Path_29865" data-name="Path 29865" d="M426.9,397.325h-7.587l-2.343-7.213-2.344,7.213h-7.583l6.135,4.459-2.344,7.21,6.136-4.453,6.135,4.45-2.34-7.207Z" transform="translate(-183.51 -262.266)" fill="#bc6554"/>
    <path id="Path_29866" data-name="Path 29866" d="M271.773,278.312c0-7.3-5.8-15.812-22.136-15.812S227.5,271.016,227.5,278.312v3.162h44.273Z" transform="translate(-36.408 -157.714)" fill="#bc6554"/>
    <path id="Path_29867" data-name="Path 29867" d="M278.312,101.624A15.812,15.812,0,1,0,262.5,85.812,15.83,15.83,0,0,0,278.312,101.624Z" transform="translate(-65.083)" fill="#bc6554"/>
    <path id="Path_29868" data-name="Path 29868" d="M195.335,398.115l-2.344-7.213-2.346,7.213h-7.583l6.135,4.458-2.34,7.211,6.135-4.453,6.135,4.449-2.344-7.207,6.135-4.458Z" transform="translate(0 -262.913)" fill="#bc6554"/>
    <path id="Path_29869" data-name="Path 29869" d="M307.325,397.325l-2.344-7.213-2.344,7.213h-7.586l6.138,4.459-2.343,7.21,6.135-4.453,6.135,4.453-2.343-7.21,6.138-4.459Z" transform="translate(-91.753 -262.266)" fill="#bc6554"/>
  </g>
</svg>
