<svg xmlns="http://www.w3.org/2000/svg" width="75.09" height="67.58" viewBox="0 0 75.09 67.58">
  <g id="proven-track-record" transform="translate(-116.667 -70.002)">
    <path id="Path_29870" data-name="Path 29870" d="M462.107,163.33H447.089a3.755,3.755,0,0,0,0,7.509h15.018a3.755,3.755,0,0,0,0-7.509Z" transform="translate(-274.105 -78.311)" fill="#bc6554"/>
    <path id="Path_29871" data-name="Path 29871" d="M120.421,77.511H188A3.755,3.755,0,0,0,188,70H120.421a3.755,3.755,0,0,0,0,7.509Z" fill="#bc6554"/>
    <path id="Path_29872" data-name="Path 29872" d="M501.263,256.67h-7.509a3.754,3.754,0,1,0,0,7.509h7.509a3.754,3.754,0,1,0,0-7.509Z" transform="translate(-313.26 -156.632)" fill="#bc6554"/>
    <path id="Path_29873" data-name="Path 29873" d="M501.263,350h-7.509a3.755,3.755,0,0,0,0,7.509h7.509a3.755,3.755,0,0,0,0-7.509Z" transform="translate(-313.26 -234.944)" fill="#bc6554"/>
    <path id="Path_29874" data-name="Path 29874" d="M462.107,443.33H447.089a3.755,3.755,0,0,0,0,7.509h15.018a3.755,3.755,0,0,0,0-7.509Z" transform="translate(-274.105 -313.257)" fill="#bc6554"/>
    <path id="Path_29875" data-name="Path 29875" d="M142.951,163.33a26.282,26.282,0,1,0,18.583,7.7A26.28,26.28,0,0,0,142.951,163.33Zm3.754,26.281h0a3.754,3.754,0,0,1-1.089,2.666l-7.509,7.509h0a3.754,3.754,0,0,1-5.294-5.294l6.383-6.42V174.593a3.754,3.754,0,1,1,7.509,0Z" transform="translate(-0.003 -78.311)" fill="#bc6554"/>
  </g>
</svg>
