<svg xmlns="http://www.w3.org/2000/svg" width="75.145" height="69.814" viewBox="0 0 75.145 69.814">
  <g id="range-of-expertise" transform="translate(-48.615 -0.001)">
    <path id="Path_29876" data-name="Path 29876" d="M78.833,317.587v-6.854a6.736,6.736,0,0,1-7.109-6.854,6.539,6.539,0,0,1,7.109-6.6v-6.854H66.14c.508-1.015,1.523-2.285,1.523-3.554,0-5.077-7.616-5.077-7.616,0a8.524,8.524,0,0,0,1.27,3.554H48.623v25.133a2.184,2.184,0,0,0,2.031,2.031h28.18Z" transform="translate(-0.007 -247.772)" fill="#bc6554" fill-rule="evenodd"/>
    <path id="Path_29877" data-name="Path 29877" d="M294.98,342.11h-7.87a6.755,6.755,0,1,1-13.455,0H264.77v10.662c-1.015-.254-2.285-1.015-3.3-1.015-4.824,0-4.824,7.616,0,7.616a8.278,8.278,0,0,0,3.3-1.015v10.916h28.18a2.184,2.184,0,0,0,2.031-2.031V342.11Z" transform="translate(-183.152 -299.459)" fill="#bc6554" fill-rule="evenodd"/>
    <path id="Path_29878" data-name="Path 29878" d="M48.615,128.984h8.632a6.64,6.64,0,1,1,13.2,0h8.378V117.56c1.27.508,2.539,1.523,3.808,1.523,5.077,0,5.077-7.87,0-7.87-1.27,0-2.539.762-3.808,1.27V101.82H50.646a2.184,2.184,0,0,0-2.031,2.031v25.133Z" transform="translate(0 -89.126)" fill="#bc6554" fill-rule="evenodd"/>
    <path id="Path_29879" data-name="Path 29879" d="M439.262,27.165V2.032A2.238,2.238,0,0,0,436.977,0H409.052V6.6a6.64,6.64,0,1,1,0,13.2v7.362h12.694c-.254,1.015-1.015,2.285-1.015,3.3,0,5.077,7.87,5.077,7.87,0a8.867,8.867,0,0,0-1.27-3.3Z" transform="translate(-315.502 0)" fill="#bc6554" fill-rule="evenodd"/>
  </g>
</svg>
