<?xml version="1.0" encoding="utf-8"?>
<!-- Generator: Adobe Illustrator 16.0.3, SVG Export Plug-In . SVG Version: 6.00 Build 0)  -->
<!DOCTYPE svg PUBLIC "-//W3C//DTD SVG 1.1//EN" "http://www.w3.org/Graphics/SVG/1.1/DTD/svg11.dtd">
<svg version="1.1" id="Layer_1" xmlns="http://www.w3.org/2000/svg" xmlns:xlink="http://www.w3.org/1999/xlink" x="0px" y="0px"
	 width="390.91px" height="70.625px" viewBox="0 0 390.91 70.625" enable-background="new 0 0 390.91 70.625" xml:space="preserve">
<g id="Hilfslinien_anzeigen" display="none">
</g>
<g id="Vordergrund">
	<path fill="#8E969C" d="M266.836,50.857h-1.898l-1.584,8.422c-0.057,0.316-0.168,1.043-0.262,1.527
		c-0.074-0.468-0.225-1.154-0.316-1.511l-2.125-8.438h-1.677l-2.087,8.254c-0.094,0.392-0.28,1.268-0.354,1.695
		c-0.057-0.43-0.224-1.322-0.299-1.716l-1.564-8.233h-1.976l2.665,13.043h1.938l2.123-8.422c0.113-0.447,0.316-1.416,0.373-1.733
		c0.058,0.317,0.263,1.286,0.373,1.733l2.03,8.422h1.976L266.836,50.857z"/>
	<path fill="#8E969C" d="M275.911,58.814c0-2.646-1.344-4.901-4.119-4.901c-2.532,0-4.285,1.789-4.285,5.106
		c0,3.239,1.938,5.086,4.229,5.086c1.491,0,2.518-0.465,3.373-1.285l-1.137-1.23c-0.652,0.484-1.305,0.783-2.125,0.783
		c-1.192,0-2.256-0.801-2.459-2.684h6.466C275.872,59.484,275.911,59.168,275.911,58.814z M273.972,58.105h-4.549
		c0.168-1.565,0.951-2.459,2.236-2.459C273.245,55.646,273.877,56.764,273.972,58.105z"/>
	<path fill="#8E969C" d="M284.946,61.219c0-1.846-1.116-2.441-3.298-3.281c-1.472-0.578-1.809-0.932-1.809-1.416
		c0-0.521,0.41-0.895,1.342-0.895s1.732,0.279,2.533,0.838l0.84-1.472c-0.876-0.634-2.088-1.081-3.317-1.081
		c-1.957,0-3.335,0.913-3.335,2.665c0,1.547,0.766,2.255,2.87,3.075c1.416,0.541,2.272,0.895,2.272,1.64
		c0,0.688-0.578,1.081-1.789,1.081c-0.912,0-1.938-0.335-2.853-0.969l-0.875,1.453c0.988,0.728,2.423,1.25,3.746,1.25
		C283.194,64.105,284.946,63.379,284.946,61.219z"/>
	<path fill="#8E969C" d="M292.116,61.963c-0.354,0.205-0.914,0.393-1.416,0.393c-0.709,0-1.008-0.262-1.008-1.174V55.87h2.424
		v-1.751h-2.424v-3.801l-1.882,1.006v2.795h-1.396v1.751h1.396v5.646c0,1.752,0.838,2.59,2.199,2.59
		c0.764,0,1.415-0.186,1.882-0.444L292.116,61.963z"/>
	<path fill="#8E969C" d="M298.841,52.236v-1.678c-0.41-0.111-0.951-0.188-1.454-0.188c-1.381,0-2.479,0.67-2.479,2.459v1.285h-1.267
		v1.789h1.267V63.9h1.921v-7.994h1.808v-1.788h-1.808V53c0-0.708,0.26-0.95,0.895-0.95C298.058,52.05,298.393,52.105,298.841,52.236
		z"/>
	<path fill="#8E969C" d="M307.837,63.9v-6.707c0-2.219-1.49-3.28-3.672-3.28c-1.379,0-2.422,0.298-3.354,0.876l0.746,1.454
		c0.764-0.429,1.546-0.615,2.553-0.615c1.192,0,1.846,0.597,1.846,1.659v0.727c-0.54-0.242-1.268-0.373-2.181-0.373
		c-2.217,0-3.896,0.987-3.896,3.168c0,2.403,1.809,3.297,3.393,3.297c1.063,0,2.012-0.502,2.684-1.174V63.9H307.837z
		 M305.955,61.125c-0.445,0.615-1.342,1.249-2.363,1.249c-1.27,0-1.884-0.651-1.884-1.621c0-0.896,0.782-1.454,2.015-1.454
		c1.043,0,1.714,0.167,2.235,0.43v1.396H305.955z"/>
	<polygon fill="#8E969C" points="312.605,63.9 312.605,50.316 310.686,51.322 310.686,63.9 	"/>
	<path fill="#8E969C" d="M323.466,58.814c0-2.646-1.344-4.901-4.117-4.901c-2.534,0-4.286,1.789-4.286,5.106
		c0,3.239,1.938,5.086,4.229,5.086c1.492,0,2.518-0.465,3.373-1.285l-1.137-1.23c-0.652,0.484-1.304,0.783-2.125,0.783
		c-1.189,0-2.254-0.801-2.459-2.684h6.467C323.429,59.484,323.466,59.168,323.466,58.814z M321.528,58.105h-4.546
		c0.167-1.565,0.95-2.459,2.236-2.459C320.802,55.646,321.435,56.764,321.528,58.105z"/>
	<path fill="#8E969C" d="M333.714,63.9v-5.607c0-2.889-1.211-4.379-3.484-4.379c-1.006,0-1.977,0.43-2.46,1.137v-0.932h-1.919v9.783
		h1.919V58.18c0-1.582,0.728-2.496,2.013-2.496c1.27,0,2.014,0.707,2.014,2.685V63.9H333.714L333.714,63.9z"/>
	<rect x="336.078" y="56.13" fill="#8E969C" width="4.657" height="1.901"/>
	<polygon fill="#8E969C" points="351.914,63.9 351.914,61.982 345.41,61.982 345.41,50.857 343.455,50.857 343.455,63.9 	"/>
	<path fill="#8E969C" d="M356.554,51.621c0-0.689-0.562-1.248-1.23-1.248c-0.688,0-1.249,0.559-1.249,1.248
		c0,0.671,0.561,1.23,1.249,1.23C355.994,52.852,356.554,52.292,356.554,51.621z M356.274,63.9v-9.782h-1.92V63.9H356.274z"/>
	<path fill="#8E969C" d="M367.414,59.168c0-3.727-1.658-5.255-3.765-5.255c-1.022,0-1.845,0.485-2.553,1.137v-0.932h-1.901v13.379
		l1.901-0.987v-3.521c0.541,0.598,1.472,1.117,2.459,1.117C365.589,64.105,367.414,62.521,367.414,59.168z M365.494,59.225
		c0,2.068-0.746,3.111-2.123,3.111c-0.97,0-1.863-0.708-2.293-1.286v-4.118c0.506-0.634,1.307-1.248,2.219-1.248
		C364.712,55.684,365.494,56.764,365.494,59.225z"/>
	<path fill="#8E969C" d="M378.033,59.168c0-3.727-1.66-5.255-3.765-5.255c-1.024,0-1.845,0.485-2.554,1.137v-0.932h-1.899v13.379
		l1.899-0.987v-3.521c0.541,0.598,1.473,1.117,2.459,1.117C376.209,64.105,378.033,62.521,378.033,59.168z M376.114,59.225
		c0,2.068-0.746,3.111-2.123,3.111c-0.97,0-1.863-0.708-2.293-1.286v-4.118c0.504-0.634,1.307-1.248,2.218-1.248
		C375.33,55.684,376.114,56.764,376.114,59.225z"/>
	<path fill="#8E969C" d="M388.373,58.814c0-2.646-1.343-4.901-4.117-4.901c-2.533,0-4.285,1.789-4.285,5.106
		c0,3.239,1.938,5.086,4.229,5.086c1.491,0,2.519-0.465,3.373-1.285l-1.137-1.23c-0.652,0.484-1.304,0.783-2.124,0.783
		c-1.191,0-2.255-0.801-2.46-2.684h6.466C388.335,59.484,388.373,59.168,388.373,58.814z M386.435,58.105h-4.546
		c0.167-1.565,0.949-2.459,2.234-2.459C385.709,55.646,386.343,56.764,386.435,58.105z"/>
	<path fill="#8E969C" d="M263.631,27.461h-2.086l-2.685,8.292c-0.241,0.765-0.614,1.938-0.728,2.403
		c-0.111-0.465-0.483-1.62-0.727-2.384l-2.723-8.311h-2.124l4.526,13.043h2.068L263.631,27.461z"/>
	<path fill="#8E969C" d="M271.534,35.418c0-2.646-1.343-4.901-4.117-4.901c-2.535,0-4.287,1.789-4.287,5.106
		c0,3.242,1.938,5.087,4.229,5.087c1.491,0,2.517-0.466,3.373-1.286l-1.137-1.23c-0.652,0.484-1.306,0.783-2.124,0.783
		c-1.192,0-2.256-0.801-2.46-2.683h6.466C271.497,36.089,271.534,35.772,271.534,35.418z M269.596,34.71h-4.548
		c0.168-1.565,0.951-2.459,2.236-2.459C268.87,32.25,269.502,33.368,269.596,34.71z"/>
	<path fill="#8E969C" d="M279.732,30.927c-0.393-0.26-0.876-0.41-1.659-0.41c-0.969,0-1.788,0.485-2.235,1.137v-0.932h-1.918v9.783
		h1.918v-5.59c0-1.659,0.709-2.516,1.92-2.516c0.635,0,1.063,0.13,1.473,0.354L279.732,30.927z"/>
	<path fill="#8E969C" d="M289.18,35.418c0-2.646-1.343-4.901-4.118-4.901c-2.534,0-4.286,1.789-4.286,5.106
		c0,3.242,1.938,5.087,4.229,5.087c1.49,0,2.517-0.466,3.373-1.286l-1.137-1.23c-0.652,0.484-1.306,0.783-2.125,0.783
		c-1.193,0-2.257-0.801-2.461-2.683h6.467C289.142,36.089,289.18,35.772,289.18,35.418z M287.243,34.71h-4.549
		c0.167-1.565,0.951-2.459,2.236-2.459C286.515,32.25,287.148,33.368,287.243,34.71z"/>
	<path fill="#8E969C" d="M293.855,28.225c0-0.689-0.561-1.249-1.229-1.249c-0.688,0-1.25,0.559-1.25,1.249
		c0,0.671,0.561,1.23,1.25,1.23C293.297,29.455,293.855,28.896,293.855,28.225z M293.577,40.505v-9.783h-1.921v9.783H293.577z"/>
	<path fill="#8E969C" d="M304.362,40.505v-5.608c0-2.888-1.211-4.379-3.482-4.379c-1.008,0-1.977,0.429-2.459,1.137v-0.932H296.5
		v9.783h1.919v-5.721c0-1.583,0.728-2.497,2.013-2.497c1.267,0,2.013,0.708,2.013,2.683v5.534H304.362z"/>
	<path fill="#8E969C" d="M309.41,28.225c0-0.689-0.56-1.249-1.229-1.249c-0.689,0-1.249,0.559-1.249,1.249
		c0,0.671,0.559,1.23,1.249,1.23C308.851,29.455,309.41,28.896,309.41,28.225z M309.13,40.505v-9.783h-1.921v9.783H309.13z"/>
	<path fill="#8E969C" d="M319.841,39.572v-8.85h-1.918v0.913c-0.522-0.596-1.455-1.118-2.441-1.118
		c-2.014,0-3.857,1.584-3.857,4.938c0,3.727,1.68,5.255,3.768,5.255c1.021,0,1.826-0.483,2.533-1.138v0.168
		c0,2.031-0.598,2.777-3.354,2.908l0.652,1.453C318.761,43.988,319.841,42.555,319.841,39.572z M317.96,37.691
		c-0.506,0.633-1.308,1.248-2.221,1.248c-1.416,0-2.199-1.082-2.199-3.542c0-2.068,0.746-3.112,2.125-3.112
		c0.972,0,1.863,0.708,2.295,1.286V37.691z"/>
	<path fill="#8E969C" d="M330.46,40.505v-9.783h-1.92v5.721c0,1.584-0.728,2.496-2.014,2.496c-1.267,0-2.012-0.707-2.012-2.685
		v-5.534h-1.919v5.609c0,2.891,1.211,4.379,3.481,4.379c1.007,0,1.979-0.43,2.461-1.139v0.934L330.46,40.505L330.46,40.505z"/>
	<path fill="#8E969C" d="M341.154,40.505v-5.608c0-2.888-1.211-4.379-3.481-4.379c-1.008,0-1.978,0.429-2.461,1.137v-0.932h-1.918
		v9.783h1.918v-5.721c0-1.583,0.728-2.497,2.014-2.497c1.267,0,2.013,0.708,2.013,2.683v5.534H341.154z"/>
	<path fill="#8E969C" d="M351.699,39.572v-8.85h-1.92v0.913c-0.521-0.596-1.453-1.118-2.439-1.118c-2.014,0-3.856,1.584-3.856,4.938
		c0,3.727,1.677,5.255,3.765,5.255c1.023,0,1.825-0.483,2.533-1.138v0.168c0,2.031-0.597,2.777-3.354,2.908l0.65,1.453
		C350.617,43.988,351.699,42.555,351.699,39.572z M349.817,37.691c-0.503,0.633-1.304,1.248-2.217,1.248
		c-1.417,0-2.199-1.082-2.199-3.542c0-2.068,0.745-3.112,2.124-3.112c0.97,0,1.863,0.708,2.292,1.286V37.691L349.817,37.691z"/>
	<path fill="#8E969C" d="M263.668,17.109l-4.657-8.311l3.819-4.733h-2.22l-3.856,4.826c-0.428,0.54-1.284,1.621-1.51,1.957
		c0.021-0.41,0.039-1.826,0.039-2.311V4.065h-1.902v13.043h1.902v-3.764l2.422-2.926l3.746,6.689h2.217V17.109L263.668,17.109z"/>
	<path fill="#8E969C" d="M272.61,17.109v-6.708c0-2.218-1.489-3.28-3.671-3.28c-1.379,0-2.422,0.298-3.354,0.876l0.746,1.454
		c0.765-0.429,1.545-0.615,2.553-0.615c1.193,0,1.846,0.596,1.846,1.659v0.727c-0.54-0.242-1.268-0.373-2.182-0.373
		c-2.217,0-3.896,0.987-3.896,3.167c0,2.404,1.81,3.298,3.394,3.298c1.063,0,2.014-0.503,2.684-1.174v0.969H272.61z M270.728,14.333
		c-0.447,0.615-1.342,1.249-2.366,1.249c-1.267,0-1.882-0.652-1.882-1.621c0-0.895,0.783-1.454,2.014-1.454
		c1.043,0,1.715,0.167,2.235,0.429L270.728,14.333L270.728,14.333z"/>
	<path fill="#8E969C" d="M282.204,14.426c0-1.845-1.117-2.441-3.299-3.28c-1.473-0.578-1.808-0.932-1.808-1.416
		c0-0.521,0.409-0.895,1.341-0.895c0.934,0,1.732,0.28,2.534,0.838l0.839-1.472c-0.876-0.634-2.087-1.081-3.316-1.081
		c-1.957,0-3.334,0.913-3.334,2.665c0,1.547,0.764,2.255,2.868,3.075c1.416,0.541,2.272,0.895,2.272,1.64
		c0,0.689-0.577,1.081-1.788,1.081c-0.913,0-1.938-0.335-2.853-0.969l-0.875,1.454c0.986,0.727,2.422,1.249,3.746,1.249
		C280.454,17.314,282.204,16.587,282.204,14.426z"/>
	<path fill="#8E969C" d="M291.312,14.426c0-1.845-1.118-2.441-3.298-3.28c-1.474-0.578-1.81-0.932-1.81-1.416
		c0-0.521,0.41-0.895,1.342-0.895s1.731,0.28,2.533,0.838l0.84-1.472c-0.877-0.634-2.088-1.081-3.316-1.081
		c-1.957,0-3.335,0.913-3.335,2.665c0,1.547,0.765,2.255,2.869,3.075c1.417,0.541,2.272,0.895,2.272,1.64
		c0,0.689-0.578,1.081-1.789,1.081c-0.912,0-1.938-0.335-2.852-0.969l-0.876,1.454c0.987,0.727,2.423,1.249,3.746,1.249
		C289.56,17.314,291.312,16.587,291.312,14.426z"/>
	<path fill="#8E969C" d="M301.519,12.022c0-2.646-1.342-4.901-4.118-4.901c-2.532,0-4.286,1.789-4.286,5.106
		c0,3.242,1.938,5.087,4.23,5.087c1.491,0,2.516-0.466,3.372-1.286l-1.139-1.23c-0.649,0.484-1.304,0.783-2.122,0.783
		c-1.191,0-2.256-0.801-2.461-2.683h6.468C301.481,12.693,301.519,12.376,301.519,12.022z M299.58,11.314h-4.546
		c0.168-1.565,0.949-2.459,2.235-2.459C298.854,8.854,299.487,9.972,299.58,11.314z"/>
	<path fill="#8E969C" d="M311.766,17.109V11.5c0-2.888-1.211-4.379-3.485-4.379c-1.006,0-1.975,0.429-2.459,1.137V7.326h-1.919
		v9.783h1.919v-5.721c0-1.583,0.729-2.497,2.015-2.497c1.267,0,2.013,0.708,2.013,2.683v5.534L311.766,17.109L311.766,17.109z"/>
	<path fill="#8E969C" d="M321.36,4.867c0-0.689-0.576-1.268-1.248-1.268c-0.688,0-1.267,0.578-1.267,1.268
		c0,0.67,0.577,1.249,1.267,1.249C320.783,6.115,321.36,5.537,321.36,4.867z M317.727,4.867c0-0.689-0.578-1.268-1.249-1.268
		c-0.688,0-1.267,0.578-1.267,1.268c0,0.67,0.576,1.249,1.267,1.249C317.149,6.115,317.727,5.537,317.727,4.867z M322.012,17.109
		v-6.708c0-2.218-1.491-3.28-3.67-3.28c-1.379,0-2.425,0.298-3.354,0.876l0.746,1.454c0.765-0.429,1.546-0.615,2.554-0.615
		c1.191,0,1.846,0.596,1.846,1.659v0.727c-0.539-0.242-1.269-0.373-2.182-0.373c-2.217,0-3.895,0.987-3.895,3.167
		c0,2.404,1.809,3.298,3.393,3.298c1.063,0,2.014-0.503,2.684-1.174v0.969H322.012z M320.13,14.333
		c-0.446,0.615-1.344,1.249-2.366,1.249c-1.269,0-1.882-0.652-1.882-1.621c0-0.895,0.781-1.454,2.013-1.454
		c1.043,0,1.714,0.167,2.235,0.429V14.333z"/>
	<path fill="#8E969C" d="M330.584,7.531c-0.394-0.26-0.879-0.41-1.66-0.41c-0.971,0-1.789,0.485-2.235,1.137V7.326h-1.919v9.783
		h1.919v-5.59c0-1.658,0.708-2.515,1.919-2.515c0.633,0,1.063,0.13,1.473,0.354L330.584,7.531z"/>
	<path fill="#8E969C" d="M339.433,17.109v-1.677h-3.483c-0.484,0-1.436-0.019-1.789,0c0.262-0.298,0.782-0.932,1.176-1.435
		l4.1-5.124V7.326h-7.174v1.677h3.242c0.482,0,1.396,0.019,1.752,0c-0.264,0.298-0.783,0.932-1.176,1.416l-4.191,5.125v1.565
		H339.433z"/>
	<path fill="#8E969C" d="M346.941,15.171c-0.354,0.205-0.913,0.392-1.416,0.392c-0.708,0-1.006-0.261-1.006-1.174V9.078h2.422V7.326
		h-2.422V3.525l-1.882,1.006v2.795h-1.396v1.751h1.396v5.646c0,1.752,0.838,2.59,2.199,2.59c0.764,0,1.416-0.186,1.882-0.447
		L346.941,15.171z"/>
	<polygon fill="#8E969C" points="351.56,17.109 351.56,3.525 349.641,4.531 349.641,17.109 	"/>
	<path fill="#8E969C" d="M356.774,4.829c0-0.689-0.559-1.248-1.229-1.248c-0.688,0-1.248,0.559-1.248,1.248
		c0,0.671,0.559,1.23,1.248,1.23C356.216,6.059,356.774,5.5,356.774,4.829z M356.494,17.109V7.326h-1.918v9.783H356.494z"/>
	<path fill="#8E969C" d="M366.703,8.779c-0.914-1.081-2.029-1.658-3.466-1.658c-2.385,0-4.286,1.882-4.286,5.125
		c0,3.056,1.848,5.068,4.23,5.068c1.77,0,2.738-0.857,3.503-1.826l-1.229-1.211c-0.765,0.801-1.305,1.211-2.218,1.211
		c-1.526,0-2.348-1.379-2.348-3.298c0-1.994,0.896-3.242,2.292-3.242c0.876,0,1.584,0.373,2.385,1.193L366.703,8.779z"/>
	<path fill="#8E969C" d="M377.009,17.109V11.5c0-2.888-1.211-4.379-3.485-4.379c-1.006,0-1.976,0.429-2.459,1.137V3.525
		l-1.919,1.006v12.578h1.919v-5.721c0-1.583,0.729-2.497,2.013-2.497c1.268,0,2.014,0.708,2.014,2.683v5.534L377.009,17.109
		L377.009,17.109z"/>
	<path fill="#8E969C" d="M387.701,12.022c0-2.646-1.341-4.901-4.115-4.901c-2.535,0-4.287,1.789-4.287,5.106
		c0,3.242,1.938,5.087,4.229,5.087c1.491,0,2.518-0.466,3.373-1.286l-1.137-1.23c-0.652,0.484-1.305,0.783-2.124,0.783
		c-1.192,0-2.255-0.801-2.46-2.683h6.466C387.664,12.693,387.701,12.376,387.701,12.022z M385.764,11.314h-4.546
		c0.167-1.565,0.95-2.459,2.233-2.459C385.037,8.854,385.671,9.972,385.764,11.314z"/>
	<polygon fill="#8E969C" points="215.359,4.054 199.4,4.054 199.4,63.902 240.336,63.902 240.336,50.018 215.359,50.018 	"/>
	<polygon fill="#8E969C" points="104.263,40.999 112.468,12.81 122.942,50.178 123.42,50.178 136.588,4.054 136.923,4.054 
		153.122,4.054 166.05,50.178 166.528,50.178 179.696,4.054 196.213,4.054 178.737,63.902 153.841,63.902 144.883,32.214 
		135.629,63.902 110.733,63.902 	"/>
	<polygon fill="#55A51C" points="92.582,63.902 67.64,63.902 52.062,8.791 34.393,33.419 57.216,63.902 37.426,63.902 
		20.748,40.441 15.96,40.441 15.96,63.902 0,63.902 0,4.054 15.96,4.054 15.96,26.557 20.748,26.557 36.148,4.054 50.723,4.054 
		55.46,4.054 66.922,4.054 79.849,50.178 80.328,50.178 93.495,4.054 110.014,4.054 	"/>
</g>
</svg>
